<?xml version="1.0" encoding="UTF-8" standalone="no"?>
<!-- Created with Inkscape (http://www.inkscape.org/) -->

<svg
   xmlns:dc="http://purl.org/dc/elements/1.1/"
   xmlns:cc="http://creativecommons.org/ns#"
   xmlns:rdf="http://www.w3.org/1999/02/22-rdf-syntax-ns#"
   xmlns:svg="http://www.w3.org/2000/svg"
   xmlns="http://www.w3.org/2000/svg"
   xmlns:sodipodi="http://sodipodi.sourceforge.net/DTD/sodipodi-0.dtd"
   xmlns:inkscape="http://www.inkscape.org/namespaces/inkscape"
   width="544.31439mm"
   height="138.55252mm"
   viewBox="0 0 544.31441 138.55252"
   version="1.1"
   id="svg8"
   inkscape:version="0.92.3 (2405546, 2018-03-11)"
   sodipodi:docname="footer.svg">
  <defs
     id="defs2" />
  <sodipodi:namedview
     id="base"
     pagecolor="#ffffff"
     bordercolor="#666666"
     borderopacity="1.0"
     inkscape:pageopacity="0.0"
     inkscape:pageshadow="2"
     inkscape:zoom="0.25"
     inkscape:cx="881.01691"
     inkscape:cy="30.22192"
     inkscape:document-units="mm"
     inkscape:current-layer="g4771"
     showgrid="false"
     inkscape:window-width="1366"
     inkscape:window-height="705"
     inkscape:window-x="-8"
     inkscape:window-y="-8"
     inkscape:window-maximized="1" />
  <metadata
     id="metadata5">
    <rdf:RDF>
      <cc:Work
         rdf:about="">
        <dc:format>image/svg+xml</dc:format>
        <dc:type
           rdf:resource="http://purl.org/dc/dcmitype/StillImage" />
        <dc:title></dc:title>
      </cc:Work>
    </rdf:RDF>
  </metadata>
  <g
     inkscape:label="Layer 1"
     inkscape:groupmode="layer"
     id="layer1"
     transform="translate(132.41938,-66.756943)">
    <g
       id="g4677">
      <g
         id="g4724"
         transform="translate(-23.94735,43.404571)">
        <g
           id="g4732" />
        <g
           id="g4771"
           transform="matrix(3.1238319,0,0,2.8287327,-574.1046,-656.42242)">
          <g
             id="g823">
            <rect
               y="261.97913"
               x="190.05212"
               height="27.311995"
               width="114.85094"
               id="rect818"
               style="opacity:0.98999999;fill:#606060;fill-opacity:0.99215686;stroke-width:0.07802294" />
            <path
               inkscape:connector-curvature="0"
               id="path4779"
               d="m 291.25452,286.54665 c 1.26421,-7.04807 1.77829,-10.24638 1.66333,-10.34819 -0.11909,-0.10547 -27.03413,-4.38592 -70.52999,-11.2168 -10.88263,-1.70908 -19.61424,-3.13804 -19.40359,-3.17551 0.21066,-0.0374 27.19811,-4.88923 59.97213,-10.78177 32.77405,-5.89251 59.75977,-10.71366 59.96829,-10.71366 0.31536,0 0.37919,4.11929 0.37919,24.47395 v 24.47396 h -16.2679 -16.26791 z"
               style="opacity:0.98999999;fill:#606060;fill-opacity:1;stroke:none;stroke-width:0.27277058" />
            <path
               inkscape:connector-curvature="0"
               id="path4777"
               d="m 149.05814,269.55024 v -19.74091 l 0.81238,0.18666 c 0.4468,0.10266 30.04226,6.59567 65.76768,14.42892 35.72542,7.83326 64.9971,14.29335 65.0482,14.35574 0.0511,0.0624 -0.22306,2.45279 -0.60921,5.31196 l -0.70211,5.19853 H 214.2166 149.05814 Z"
               style="opacity:0.98999999;fill:#ff0048;fill-opacity:1;stroke:none;stroke-width:0.23941083" />
          </g>
        </g>
      </g>
    </g>
  </g>
</svg>
